<?xml version="1.0" encoding="UTF-8" standalone="no"?>
<svg
   id="e87ddc62-7528-42a5-8b37-f74ed0351019"
   data-name="Layer 1"
   width="1131"
   height="812.20611"
   viewBox="0 0 1131 812.20611"
   version="1.1"
   sodipodi:docname="undraw_software_engineer_lvl5.svg"
   xml:space="preserve"
   inkscape:version="1.3 (0e150ed6c4, 2023-07-21)"
   xmlns:inkscape="http://www.inkscape.org/namespaces/inkscape"
   xmlns:sodipodi="http://sodipodi.sourceforge.net/DTD/sodipodi-0.dtd"
   xmlns="http://www.w3.org/2000/svg"
   xmlns:svg="http://www.w3.org/2000/svg"
   xmlns:rdf="http://www.w3.org/1999/02/22-rdf-syntax-ns#"
   xmlns:cc="http://creativecommons.org/ns#"
   xmlns:dc="http://purl.org/dc/elements/1.1/"><defs
     id="defs52" /><sodipodi:namedview
     id="namedview52"
     pagecolor="#ffffff"
     bordercolor="#000000"
     borderopacity="0.25"
     inkscape:showpageshadow="2"
     inkscape:pageopacity="0.0"
     inkscape:pagecheckerboard="0"
     inkscape:deskcolor="#d1d1d1"
     showgrid="false"
     inkscape:zoom="0.55108991"
     inkscape:cx="821.10014"
     inkscape:cy="409.18913"
     inkscape:window-width="1600"
     inkscape:window-height="829"
     inkscape:window-x="-8"
     inkscape:window-y="-8"
     inkscape:window-maximized="1"
     inkscape:current-layer="e87ddc62-7528-42a5-8b37-f74ed0351019" /><title
     id="title1">software engineer</title><rect
     x="689.32824"
     y="51.26718"
     width="80.80153"
     height="30.0916"
     fill="#ffc107"
     opacity="0.3"
     id="rect1" /><rect
     x="823.62595"
     width="80.80153"
     height="30.0916"
     fill="#ffc107"
     opacity="0.3"
     id="rect2" /><rect
     x="829.19847"
     y="93.06107"
     width="80.80153"
     height="30.0916"
     fill="#ffc107"
     opacity="0.3"
     id="rect3" /><rect
     x="570.63359"
     y="127.61069"
     width="80.80153"
     height="30.0916"
     fill="#ffc107"
     opacity="0.3"
     id="rect4" /><rect
     x="545"
     y="251.32061"
     width="80.80153"
     height="30.0916"
     fill="#ffc107"
     opacity="0.3"
     id="rect5" /><rect
     x="667.03817"
     y="248.53435"
     width="80.80153"
     height="30.0916"
     fill="#ffc107"
     opacity="0.3"
     id="rect6" /><polyline
     points="823.626 14.856 770.13 65.616 829.198 108.107"
     fill="none"
     stroke="#3f3d56"
     stroke-miterlimit="10"
     id="polyline6" /><line
     x1="689.32824"
     y1="65.61641"
     x2="611.03435"
     y2="127.61069"
     fill="none"
     stroke="#3f3d56"
     stroke-miterlimit="10"
     id="line6" /><polyline
     points="585.401 251.297 611.034 157.702 707.439 248.534"
     fill="none"
     stroke="#3f3d56"
     stroke-miterlimit="10"
     id="polyline7" /><rect
     x="144.32824"
     y="82.26718"
     width="80.80153"
     height="30.0916"
     fill="#ffc107"
     opacity="0.3"
     id="rect7" /><rect
     x="278.62595"
     y="31"
     width="80.80153"
     height="30.0916"
     fill="#ffc107"
     opacity="0.3"
     id="rect8" /><rect
     x="284.19847"
     y="124.06107"
     width="80.80153"
     height="30.0916"
     fill="#ffc107"
     opacity="0.3"
     id="rect9" /><rect
     x="25.63359"
     y="158.61069"
     width="80.80153"
     height="30.0916"
     fill="#ffc107"
     opacity="0.3"
     id="rect10" /><rect
     y="282.32061"
     width="80.80153"
     height="30.0916"
     fill="#ffc107"
     opacity="0.3"
     id="rect11" /><rect
     x="122.03817"
     y="279.53435"
     width="80.80153"
     height="30.0916"
     fill="#ffc107"
     opacity="0.3"
     id="rect12" /><polyline
     points="278.626 45.856 225.13 96.616 284.198 139.107"
     fill="none"
     stroke="#3f3d56"
     stroke-miterlimit="10"
     id="polyline12" /><line
     x1="144.32824"
     y1="96.61641"
     x2="66.03435"
     y2="158.61069"
     fill="none"
     stroke="#3f3d56"
     stroke-miterlimit="10"
     id="line12" /><polyline
     points="40.401 282.297 66.034 188.702 162.439 279.534"
     fill="none"
     stroke="#3f3d56"
     stroke-miterlimit="10"
     id="polyline13" /><line
     x1="365"
     y1="139.10687"
     x2="456.63359"
     y2="139.10687"
     fill="none"
     stroke="#3f3d56"
     stroke-miterlimit="10"
     id="line13" /><rect
     x="415.5"
     y="123.70611"
     width="95"
     height="30"
     fill="#ffc107"
     id="rect13" /><line
     x1="510.62322"
     y1="138.70611"
     x2="570.63359"
     y2="138.70611"
     fill="none"
     stroke="#3f3d56"
     stroke-miterlimit="10"
     id="line14" /><line
     x1="415.04486"
     y1="138.70611"
     x2="359.42748"
     y2="45.8564"
     fill="none"
     stroke="#3f3d56"
     stroke-miterlimit="10"
     id="line15" /><ellipse
     cx="691"
     cy="714.20611"
     rx="440"
     ry="98"
     fill="#f2f2f2"
     id="ellipse15" /><polygon
     points="894.984 391.611 852.078 606.582 842.79 606.582 841.768 604.994 838.809 600.39 875.964 399.572 881.604 397.21 894.984 391.611"
     fill="#47465a"
     id="polygon15" /><polygon
     points="881.604 397.21 841.768 604.994 838.809 600.39 875.964 399.572 881.604 397.21"
     opacity="0.1"
     id="polygon16" /><polygon
     points="959.564 684.432 948.533 687.988 945.852 688.855 942.313 680.893 881.604 403.96 887.916 402.545 901.177 399.572 959.564 684.432"
     fill="#47465a"
     id="polygon17" /><polygon
     points="948.533 687.988 945.852 688.855 942.313 680.893 881.604 403.96 887.916 402.545 948.533 687.988"
     opacity="0.1"
     id="polygon18" /><polygon
     points="433.636 391.611 423.905 670.277 412.753 672.754 411.962 672.931 408.865 667.181 415.058 394.264 421.016 393.415 433.636 391.611"
     fill="#47465a"
     id="polygon19" /><polygon
     points="421.016 393.415 412.753 672.754 411.962 672.931 408.865 667.181 415.058 394.264 421.016 393.415"
     opacity="0.1"
     id="polygon20" /><polygon
     points="491.581 768.917 480.045 770.907 478.753 771.128 475.215 763.609 419.039 399.572 420.658 399.081 429.213 396.476 491.581 768.917"
     fill="#47465a"
     id="polygon21" /><polygon
     points="480.045 770.907 478.753 771.128 475.215 763.609 419.039 399.572 420.658 399.081 480.045 770.907"
     opacity="0.1"
     id="polygon22" /><path
     d="M770.24611,412.94872l42.95118,54.88207a13.9279,13.9279,0,0,0,12.58842,5.24947l176.3179-20.64984a13.92791,13.92791,0,0,0,12.30779-13.83336v-40.6875Z"
     transform="translate(-34.5 -43.89695)"
     fill="#7a799c"
     id="path22" /><path
     d="M880.3875,377.89835h11.94287a0,0,0,0,1,0,0v17.23649a4.4376,4.4376,0,0,1-4.4376,4.4376H884.8251a4.4376,4.4376,0,0,1-4.4376-4.4376V377.89835A0,0,0,0,1,880.3875,377.89835Z"
     fill="#47465a"
     id="path23" /><path
     d="M453.539,447.89267l42.95118,54.88206a13.92791,13.92791,0,0,0,12.58842,5.24948l176.3179-20.64984A13.92793,13.92793,0,0,0,697.70425,473.541V432.8535Z"
     transform="translate(-34.5 -43.89695)"
     fill="#7a799c"
     id="path24" /><path
     d="M563.68035,412.84229h11.94287a0,0,0,0,1,0,0v17.23649a4.4376,4.4376,0,0,1-4.4376,4.4376H568.118a4.4376,4.4376,0,0,1-4.4376-4.4376V412.84229A0,0,0,0,1,563.68035,412.84229Z"
     fill="#47465a"
     id="path25" /><path
     d="M502.88475,475.68812l524.45934-61.09027a7.71254,7.71254,0,0,0,2.57751-14.54866l-93.81678-47.18187a108.58678,108.58678,0,0,0-59.80247-11.01708L410.3605,389.3598a8.91843,8.91843,0,0,0-5.45875,15.09495l54.25911,55.66844A52.67339,52.67339,0,0,0,502.88475,475.68812Z"
     transform="translate(-34.5 -43.89695)"
     fill="#47465a"
     id="path26" /><path
     d="M1085.04368,406.31845l-5.61-3.101s-6.05628,4.45811-10.99,23.23965,9.22074.20375,9.22074.20375l6.1926-12.82752Z"
     transform="translate(-34.5 -43.89695)"
     fill="#47465a"
     id="path27" /><path
     d="M1025.02728,578.37955s-5.75027,26.982-8.40424,34.50162c-1.30042,3.68018-7.58157,7.04629-14.54371,9.62064a97.37869,97.37869,0,0,1-19.07325,4.9762c-7.51958.88466-103.94718-14.15451-150.834-24.32806-31.58664-6.85167-35.66943-14.71185-34.97051-19.1086a6.37978,6.37978,0,0,1,1.79588-3.45015s46.44448-31.40532,62.81063-46.44449,48.65613-3.0963,84.0424,3.0963S1025.02728,578.37955,1025.02728,578.37955Z"
     transform="translate(-34.5 -43.89695)"
     fill="#47465a"
     id="path28" /><path
     d="M1079.43367,403.2175s21.6741,14.15451-51.31009,43.34818c0,0-39.669,22.36656-34.50509,114.50318a25.26971,25.26971,0,0,0,3.673,11.702c7.5302,12.3852,23.66634,43.73743-3.22723,47.62992V627.478s48.65613-24.32806,53.96407-45.1175,23.00107-136.23715,31.84764-146.853S1094.47284,408.08311,1079.43367,403.2175Z"
     transform="translate(-34.5 -43.89695)"
     fill="#47465a"
     id="path29" /><path
     d="M1002.07933,622.50181a97.37869,97.37869,0,0,1-19.07325,4.9762c-7.51958.88466-103.94718-14.15451-150.834-24.32806-31.58664-6.85167-35.66943-14.71185-34.97051-19.1086,20.76287,7.09937,88.18264,29.63158,112.378,31.49379,28.75135,2.21164,83.67966,8.36,87.842,4.18C999.02277,618.10507,1000.66379,619.80359,1002.07933,622.50181Z"
     transform="translate(-34.5 -43.89695)"
     opacity="0.1"
     id="path30" /><path
     d="M749.45667,806.621l42.0212-191.97054s7.51959-20.3471,24.77039-19.46245L832.17209,603.15s-26.53971-6.1926-32.29,14.1545S757.41858,806.621,757.41858,806.621Z"
     transform="translate(-34.5 -43.89695)"
     fill="#47465a"
     id="path31" /><polygon
     points="815.808 675.143 832.616 557.926 840.136 557.926 822.885 675.143 815.808 675.143"
     fill="#47465a"
     id="polygon31" /><path
     d="M1011.3151,833.60305l-15.92383-183.124s0-15.4815,7.96192-23.00108,33.66494-28.97011,33.66494-28.97011,6.58694-1.55055,11.89488,13.48861,42.0212,165.43083,42.0212,165.43083l-7.07725,3.0963L1038.29713,607.1309l-31.40532,29.636s-6.19259,11.05821-3.0963,21.23176,14.59684,175.60438,14.59684,175.60438Z"
     transform="translate(-34.5 -43.89695)"
     fill="#47465a"
     id="path32" /><polygon
     points="927.717 579.158 967.526 590.658 976.373 582.254 953.372 579.158 927.717 579.158"
     fill="#47465a"
     id="polygon32" /><path
     d="M608.31275,300.20117l6.45492,96.82373,141.10276-13.71218-5.61479-94.64939a9.51952,9.51952,0,0,0-10.30071-8.9223L617.0133,290.08191A9.51953,9.51953,0,0,0,608.31275,300.20117Z"
     transform="translate(-34.5 -43.89695)"
     fill="#7a799c"
     id="path33" /><polygon
     points="768.7 367.282 628.039 382.627 622.731 383.206 581.595 356.667 581.595 350.916 721.37 338.328 768.7 367.282"
     fill="#7a799c"
     id="polygon33" /><polygon
     points="628.039 382.627 622.731 383.206 581.595 356.667 581.595 351.518 628.039 382.627"
     opacity="0.1"
     id="polygon34" /><polygon
     points="583.364 255.373 588.23 341.627 712.082 330.127 707.658 246.084 583.364 255.373"
     fill="#9493b6"
     id="polygon35" /><polygon
     points="657.233 365.513 672.272 375.687 717.832 371.263 702.35 361.532 657.233 365.513"
     opacity="0.1"
     id="polygon36" /><polygon
     points="595.749 353.128 614.769 367.282 736.41 355.782 714.736 341.627 595.749 353.128"
     fill="#9493b6"
     id="polygon37" /><path
     style="fill:#435ebe"
     d="m 70.570832,215.56181 57.739768,6.41553"
     id="path52" /><metadata
     id="metadata53"><rdf:RDF><cc:Work
         rdf:about=""><dc:title>software engineer</dc:title></cc:Work></rdf:RDF></metadata></svg>
